<?xml version="1.0" encoding="utf-8"?>
<!-- Generator: Adobe Illustrator 22.1.0, SVG Export Plug-In . SVG Version: 6.00 Build 0)  -->
<svg version="1.1" id="Ebene_1" xmlns="http://www.w3.org/2000/svg" xmlns:xlink="http://www.w3.org/1999/xlink" x="0px" y="0px"
	 viewBox="0 0 202 70" enable-background="new 0 0 202 70" xml:space="preserve">
<g>
	<path fill="#FFFFFF" d="M1,5.2C1,2.5,2.2,1,5.3,1h4.3c3.2,0,4.3,1.5,4.3,4.1v4c0,0.2-0.1,0.3-0.3,0.3H9.8c-0.2,0-0.3-0.1-0.3-0.3
		V5.5c0-0.2,0-0.2-0.2-0.2H5.7c-0.2,0-0.2,0-0.2,0.2v8.2c0,0.2,0,0.2,0.2,0.2h3.9c3.4,0,4.3,1.5,4.3,4.1v9c0,2.6-0.9,4.2-4.3,4.2
		H5.4C2,31.2,1,29.7,1,27.2v-4.4c0-0.2,0.1-0.3,0.3-0.3h3.8c0.2,0,0.3,0.1,0.3,0.3v4c0,0.2,0,0.2,0.2,0.2h3.5c0.2,0,0.2,0,0.2-0.2
		v-8.3c0-0.2,0-0.2-0.2-0.2H5.3c-3.1,0-4.3-0.6-4.3-4.1V5.2z"/>
	<path fill="#FFFFFF" d="M24.8,1.2c0.3,0,0.3,0.2,0.3,0.3L30,30.7c0,0.2-0.1,0.3-0.3,0.3h-4c-0.2,0-0.3-0.1-0.3-0.3l-1-7.1h-3.5
		l-1.1,7.1c0,0.2-0.1,0.3-0.3,0.3h-4c-0.2,0-0.3-0.1-0.3-0.3l5.1-29.1c0-0.1,0.1-0.3,0.3-0.3H24.8z M21.4,19.3h2.3l-1.1-8.2
		L21.4,19.3z"/>
	<path fill="#FFFFFF" d="M32.2,31c-0.3,0-0.3-0.2-0.3-0.3V1.6c0-0.2,0.1-0.3,0.3-0.3h3.8c0.2,0,0.3,0.1,0.3,0.3v29.1
		c0,0.3-0.1,0.3-0.3,0.3H32.2z"/>
	<path fill="#FFFFFF" d="M49,31c-0.3,0-0.3-0.2-0.3-0.3l-4-14.2v14.2c0,0.3-0.1,0.3-0.3,0.3h-3.7c-0.3,0-0.3-0.2-0.3-0.3V1.6
		c0-0.2,0.1-0.3,0.3-0.3h3.8c0.2,0,0.3,0.1,0.3,0.3l4,14.2V1.6c0-0.2,0.1-0.3,0.3-0.3h3.7c0.2,0,0.3,0.1,0.3,0.3v29.1
		c0,0.3-0.2,0.3-0.3,0.3H49z"/>
	<path fill="#FFFFFF" d="M63.2,5.5v25.2c0,0.3-0.1,0.3-0.3,0.3H59c-0.2,0-0.3-0.2-0.3-0.3V5.5h-3.2c-0.3,0-0.3-0.2-0.3-0.3V1.6
		c0-0.2,0.1-0.3,0.3-0.3h11c0.2,0,0.3,0.1,0.3,0.3v3.6c0,0.2-0.2,0.3-0.3,0.3H63.2z"/>
	<path fill="#FFFFFF" d="M80,18v12.7c0,0.3-0.1,0.3-0.3,0.3h-3.8c-0.3,0-0.3-0.2-0.3-0.3V1.6c0-0.2,0.1-0.3,0.3-0.3h7.9
		c0.2,0,0.3,0.1,0.3,0.3v3.6c0,0.2-0.2,0.3-0.3,0.3H80v8.3h3.6c0.2,0,0.3,0.1,0.3,0.3v3.6c0,0.3-0.2,0.3-0.3,0.3H80z"/>
	<path fill="#FFFFFF" d="M94.7,31c-0.3,0-0.3-0.2-0.3-0.3l-3.3-11.8v11.8c0,0.3-0.1,0.3-0.3,0.3h-3.8c-0.3,0-0.3-0.2-0.3-0.3V1.6
		c0-0.2,0.1-0.3,0.3-0.3h7.7c3.2,0,4.3,1.5,4.3,4.1v8.7c0,2.4-0.8,3.9-3.3,4.1l3.7,12.5c0,0.3-0.1,0.3-0.3,0.3H94.7z M91.1,5.5v8.4
		h3.1c0.2,0,0.2,0,0.2-0.2v-8c0-0.2,0-0.2-0.2-0.2H91.1z"/>
	<path fill="#FFFFFF" d="M109.8,1.2c0.3,0,0.3,0.2,0.3,0.3l4.8,29.1c0,0.2-0.1,0.3-0.3,0.3h-4c-0.2,0-0.3-0.1-0.3-0.3l-1-7.1h-3.5
		l-1.1,7.1c0,0.2-0.1,0.3-0.3,0.3h-4c-0.2,0-0.3-0.1-0.3-0.3L105,1.6c0-0.1,0.1-0.3,0.3-0.3H109.8z M106.4,19.3h2.3l-1.1-8.2
		L106.4,19.3z"/>
	<path fill="#FFFFFF" d="M125.6,31c-0.3,0-0.3-0.2-0.3-0.3l-4-14.2v14.2c0,0.3-0.1,0.3-0.3,0.3h-3.7c-0.3,0-0.3-0.2-0.3-0.3V1.6
		c0-0.2,0.1-0.3,0.3-0.3h3.8c0.2,0,0.3,0.1,0.3,0.3l4,14.2V1.6c0-0.2,0.1-0.3,0.3-0.3h3.7c0.2,0,0.3,0.1,0.3,0.3v29.1
		c0,0.3-0.2,0.3-0.3,0.3H125.6z"/>
	<path fill="#FFFFFF" d="M141.4,5.3h-3.5c-0.2,0-0.2,0-0.2,0.2v21.2c0,0.2,0,0.2,0.2,0.2h3.5c0.2,0,0.2,0,0.2-0.2v-4
		c0-0.2,0.2-0.3,0.3-0.3h3.8c0.2,0,0.3,0.1,0.3,0.3v4.3c0,2.6-0.9,4.2-4.3,4.2h-4.3c-3.4,0-4.4-1.5-4.4-4.1v-22
		c0-2.6,1.1-4.2,4.3-4.2h4.3c3.2,0,4.3,1.5,4.3,4.1v4c0,0.2-0.1,0.3-0.3,0.3H142c-0.2,0-0.3-0.1-0.3-0.3V5.5
		C141.6,5.3,141.6,5.3,141.4,5.3z"/>
	<path fill="#FFFFFF" d="M149.5,31c-0.3,0-0.3-0.2-0.3-0.3V1.6c0-0.2,0.1-0.3,0.3-0.3h3.8c0.2,0,0.3,0.1,0.3,0.3v29.1
		c0,0.3-0.1,0.3-0.3,0.3H149.5z"/>
	<path fill="#FFFFFF" d="M156.8,5.2c0-2.6,1.1-4.2,4.3-4.2h4.3c3.2,0,4.3,1.5,4.3,4.1v4c0,0.2-0.1,0.3-0.3,0.3h-3.8
		c-0.2,0-0.3-0.1-0.3-0.3V5.5c0-0.2,0-0.2-0.2-0.2h-3.5c-0.2,0-0.2,0-0.2,0.2v8.2c0,0.2,0,0.2,0.2,0.2h3.9c3.4,0,4.3,1.5,4.3,4.1v9
		c0,2.6-0.9,4.2-4.3,4.2h-4.3c-3.4,0-4.4-1.5-4.4-4.1v-4.4c0-0.2,0.1-0.3,0.3-0.3h3.8c0.2,0,0.3,0.1,0.3,0.3v4c0,0.2,0,0.2,0.2,0.2
		h3.5c0.2,0,0.2,0,0.2-0.2v-8.3c0-0.2,0-0.2-0.2-0.2h-3.9c-3.1,0-4.3-0.6-4.3-4.1V5.2z"/>
	<path fill="#FFFFFF" d="M180.8,5.3h-3.5c-0.2,0-0.2,0-0.2,0.2v21.2c0,0.2,0,0.2,0.2,0.2h3.5c0.2,0,0.2,0,0.2-0.2v-4
		c0-0.2,0.2-0.3,0.3-0.3h3.8c0.2,0,0.3,0.1,0.3,0.3v4.3c0,2.6-0.9,4.2-4.3,4.2h-4.3c-3.4,0-4.4-1.5-4.4-4.1v-22
		c0-2.6,1.2-4.2,4.3-4.2h4.3c3.2,0,4.3,1.5,4.3,4.1v4c0,0.2-0.1,0.3-0.3,0.3h-3.8c-0.2,0-0.3-0.1-0.3-0.3V5.5
		C181,5.3,180.9,5.3,180.8,5.3z"/>
	<path fill="#FFFFFF" d="M188.1,27.2v-22c0-2.6,1.2-4.2,4.3-4.2h4.3c3.2,0,4.3,1.5,4.3,4.1v21.9c0,2.6-0.9,4.2-4.3,4.2h-4.3
		C189,31.2,188.1,29.7,188.1,27.2z M196.3,5.3h-3.5c-0.2,0-0.2,0-0.2,0.2v21.2c0,0.2,0,0.2,0.2,0.2h3.5c0.2,0,0.2,0,0.2-0.2V5.5
		C196.5,5.3,196.4,5.3,196.3,5.3z"/>
	<path fill="#FFFFFF" d="M9.4,42.8H5.9c-0.2,0-0.2,0-0.2,0.2v21.2c0,0.2,0,0.2,0.2,0.2h3.5c0.2,0,0.2,0,0.2-0.2v-4
		c0-0.2,0.2-0.3,0.3-0.3h3.8c0.2,0,0.3,0.1,0.3,0.3v4.3c0,2.6-0.9,4.2-4.3,4.2H5.6c-3.4,0-4.4-1.5-4.4-4.1v-22
		c0-2.6,1.2-4.2,4.3-4.2h4.3c3.2,0,4.3,1.5,4.3,4.1v4c0,0.2-0.1,0.3-0.3,0.3H10c-0.2,0-0.3-0.1-0.3-0.3V43
		C9.6,42.8,9.6,42.8,9.4,42.8z"/>
	<path fill="#FFFFFF" d="M16.7,64.6v-22c0-2.6,1.1-4.2,4.3-4.2h4.3c3.2,0,4.3,1.5,4.3,4.1v21.9c0,2.6-0.9,4.2-4.3,4.2h-4.3
		C17.7,68.7,16.7,67.2,16.7,64.6z M24.9,42.8h-3.5c-0.2,0-0.2,0-0.2,0.2v21.2c0,0.2,0,0.2,0.2,0.2h3.5c0.2,0,0.2,0,0.2-0.2V43
		C25.1,42.8,25.1,42.8,24.9,42.8z"/>
	<path fill="#FFFFFF" d="M37.6,55.5v12.7c0,0.3-0.1,0.3-0.3,0.3h-3.8c-0.3,0-0.3-0.2-0.3-0.3V39c0-0.2,0.1-0.3,0.3-0.3h7.9
		c0.2,0,0.3,0.1,0.3,0.3v3.6c0,0.2-0.2,0.3-0.3,0.3h-3.7v8.3h3.6c0.2,0,0.3,0.1,0.3,0.3v3.6c0,0.3-0.2,0.3-0.3,0.3H37.6z"/>
	<path fill="#FFFFFF" d="M48.6,55.5v12.7c0,0.3-0.1,0.3-0.3,0.3h-3.8c-0.3,0-0.3-0.2-0.3-0.3V39c0-0.2,0.1-0.3,0.3-0.3h7.9
		c0.2,0,0.3,0.1,0.3,0.3v3.6c0,0.2-0.2,0.3-0.3,0.3h-3.7v8.3h3.6c0.2,0,0.3,0.1,0.3,0.3v3.6c0,0.3-0.2,0.3-0.3,0.3H48.6z"/>
	<path fill="#FFFFFF" d="M55.5,68.5c-0.3,0-0.3-0.2-0.3-0.3V39c0-0.2,0.1-0.3,0.3-0.3h7.9c0.2,0,0.3,0.1,0.3,0.3v3.6
		c0,0.2-0.2,0.3-0.3,0.3h-3.7v8.3h3.7c0.2,0,0.3,0.1,0.3,0.3v3.6c0,0.3-0.2,0.3-0.3,0.3h-3.7v8.7h3.7c0.2,0,0.3,0.1,0.3,0.3v3.7
		c0,0.3-0.2,0.3-0.3,0.3H55.5z"/>
	<path fill="#FFFFFF" d="M67.1,68.5c-0.3,0-0.3-0.2-0.3-0.3V39c0-0.2,0.1-0.3,0.3-0.3H75c0.2,0,0.3,0.1,0.3,0.3v3.6
		c0,0.2-0.2,0.3-0.3,0.3h-3.7v8.3H75c0.2,0,0.3,0.1,0.3,0.3v3.6c0,0.3-0.2,0.3-0.3,0.3h-3.7v8.7H75c0.2,0,0.3,0.1,0.3,0.3v3.7
		c0,0.3-0.2,0.3-0.3,0.3H67.1z"/>
	<path fill="#FFFFFF" d="M92.9,42.8h-3.5c-0.2,0-0.2,0-0.2,0.2v21.2c0,0.2,0,0.2,0.2,0.2h3.5c0.2,0,0.2,0,0.2-0.2v-4
		c0-0.2,0.2-0.3,0.3-0.3h3.8c0.2,0,0.3,0.1,0.3,0.3v4.3c0,2.6-0.9,4.2-4.3,4.2h-4.3c-3.4,0-4.4-1.5-4.4-4.1v-22
		c0-2.6,1.2-4.2,4.3-4.2h4.3c3.2,0,4.3,1.5,4.3,4.1v4c0,0.2-0.1,0.3-0.3,0.3h-3.8c-0.2,0-0.3-0.1-0.3-0.3V43
		C93.1,42.8,93.1,42.8,92.9,42.8z"/>
	<path fill="#FFFFFF" d="M100.2,64.6v-22c0-2.6,1.2-4.2,4.3-4.2h4.3c3.2,0,4.3,1.5,4.3,4.1v21.9c0,2.6-0.9,4.2-4.3,4.2h-4.3
		C101.2,68.7,100.2,67.2,100.2,64.6z M108.4,42.8h-3.5c-0.2,0-0.2,0-0.2,0.2v21.2c0,0.2,0,0.2,0.2,0.2h3.5c0.2,0,0.2,0,0.2-0.2V43
		C108.6,42.8,108.6,42.8,108.4,42.8z"/>
	<path fill="#FFFFFF" d="M115.6,68.5c-0.3,0-0.3-0.2-0.3-0.3v-3.8c0-0.2,0.1-0.3,0.3-0.3h3.8c0.2,0,0.3,0.1,0.3,0.3v3.8
		c0,0.3-0.1,0.3-0.3,0.3H115.6z"/>
</g>
<path fill="#C7A17A" d="M199.2,69h-68.4c-1.1,0-2-0.9-2-2V40.3c0-1.1,0.9-2,2-2h68.4c1.1,0,2,0.9,2,2V67
	C201.2,68.1,200.3,69,199.2,69z"/>
<g>
	<path fill="#FFFFFF" d="M134.4,48.5c0-1.3,0.5-2,2-2h2.1c1.5,0,2,0.7,2,2v1.9c0,0.1-0.1,0.1-0.2,0.1h-1.8c-0.1,0-0.2,0-0.2-0.1
		v-1.7c0-0.1,0-0.1-0.1-0.1h-1.7c-0.1,0-0.1,0-0.1,0.1v3.9c0,0.1,0,0.1,0.1,0.1h1.9c1.6,0,2,0.7,2,1.9v4.3c0,1.3-0.4,2-2,2h-2
		c-1.6,0-2.1-0.7-2.1-1.9v-2.1c0-0.1,0.1-0.1,0.2-0.1h1.8c0.1,0,0.2,0,0.2,0.1v1.9c0,0.1,0,0.1,0.1,0.1h1.7c0.1,0,0.1,0,0.1-0.1
		v-3.9c0-0.1,0-0.1-0.1-0.1h-1.9c-1.5,0-2-0.3-2-1.9V48.5z"/>
	<path fill="#FFFFFF" d="M142.2,60.7c-0.1,0-0.2-0.1-0.2-0.2V46.7c0-0.1,0.1-0.2,0.2-0.2h1.8c0.1,0,0.2,0.1,0.2,0.2v13.8
		c0,0.1-0.1,0.2-0.2,0.2H142.2z"/>
	<path fill="#FFFFFF" d="M150.2,60.7c-0.1,0-0.2-0.1-0.2-0.2l-1.9-6.7v6.7c0,0.1-0.1,0.2-0.2,0.2h-1.8c-0.1,0-0.2-0.1-0.2-0.2V46.7
		c0-0.1,0.1-0.2,0.2-0.2h1.8c0.1,0,0.2,0.1,0.2,0.2l1.9,6.7v-6.7c0-0.1,0.1-0.2,0.2-0.2h1.8c0.1,0,0.2,0.1,0.2,0.2v13.8
		c0,0.1-0.1,0.2-0.2,0.2H150.2z"/>
	<path fill="#FFFFFF" d="M157.7,48.5H156c-0.1,0-0.1,0-0.1,0.1v10.1c0,0.1,0,0.1,0.1,0.1h1.7c0.1,0,0.1,0,0.1-0.1v-1.9
		c0-0.1,0.1-0.1,0.2-0.1h1.8c0.1,0,0.2,0,0.2,0.1v2c0,1.3-0.4,2-2,2h-2c-1.6,0-2.1-0.7-2.1-1.9V48.5c0-1.3,0.5-2,2-2h2.1
		c1.5,0,2,0.7,2,2v1.9c0,0.1-0.1,0.1-0.2,0.1h-1.8c-0.1,0-0.2,0-0.2-0.1v-1.7C157.8,48.5,157.8,48.5,157.7,48.5z"/>
	<path fill="#FFFFFF" d="M161.5,60.7c-0.1,0-0.2-0.1-0.2-0.2V46.7c0-0.1,0.1-0.2,0.2-0.2h3.8c0.1,0,0.2,0.1,0.2,0.2v1.7
		c0,0.1-0.1,0.1-0.2,0.1h-1.8v3.9h1.8c0.1,0,0.2,0.1,0.2,0.2v1.7c0,0.1-0.1,0.2-0.2,0.2h-1.8v4.1h1.8c0.1,0,0.2,0.1,0.2,0.1v1.7
		c0,0.1-0.1,0.2-0.2,0.2H161.5z"/>
	<path fill="#FFFFFF" d="M169.8,60.6v-4.7c0-0.5,0.2-0.9,0.6-1.4l2.8-3c0.4-0.4,0.5-0.6,0.5-1.3v-1.5c0-0.1,0-0.1-0.1-0.1H172
		c-0.1,0-0.1,0-0.1,0.1v1.9c0,0.1-0.1,0.1-0.2,0.1h-1.8c-0.1,0-0.2,0-0.2-0.1v-2.1c0-1.2,0.5-2,2-2h2.1c1.5,0,2,0.7,2,2v2.2
		c0,1-0.3,1.5-0.9,2.1l-2.8,3c-0.2,0.2-0.3,0.4-0.3,0.8v2c0,0.1,0,0.1,0.1,0.1h3.7c0.1,0,0.2,0.1,0.2,0.2v1.7c0,0.1-0.1,0.1-0.2,0.1
		H170C169.9,60.7,169.8,60.7,169.8,60.6z"/>
	<path fill="#FFFFFF" d="M181.1,46.5c1.5,0,2,0.7,2,2v10.4c0,1.3-0.4,2-2,2h-2c-1.6,0-2.1-0.7-2.1-1.9V48.5c0-1.3,0.5-2,2-2h1.1
		H181.1z M179.1,48.6v10.1c0,0.1,0,0.1,0.1,0.1h1.7c0.1,0,0.1,0,0.1-0.1V48.6c0-0.1,0-0.1-0.1-0.1h-1.7
		C179.2,48.5,179.1,48.5,179.1,48.6z"/>
	<path fill="#FFFFFF" d="M183.9,48.6c-0.1,0-0.2-0.1-0.1-0.2l1.9-1.7c0.1-0.1,0.2-0.2,0.4-0.2h1.5c0.1,0,0.2,0.1,0.2,0.2v13.8
		c0,0.1-0.1,0.2-0.2,0.2h-1.8c-0.1,0-0.2-0.1-0.2-0.2V48.6H183.9z"/>
	<path fill="#FFFFFF" d="M189.4,48.5c0-1.3,0.5-2,2-2h2.1c1.5,0,2,0.7,2,2v3.3c0,1.1-0.3,1.5-0.6,1.8c0.4,0.3,0.6,0.7,0.6,1.8v3.5
		c0,1.3-0.4,2-2,2h-2c-1.6,0-2.1-0.7-2.1-1.9v-3.6c0-1.1,0.3-1.5,0.6-1.8c-0.4-0.3-0.6-0.7-0.6-1.8V48.5z M193.3,48.5h-1.7
		c-0.1,0-0.1,0-0.1,0.1v3.8c0,0.1,0,0.1,0.1,0.1h1.7c0.1,0,0.1,0,0.1-0.1v-3.8C193.4,48.5,193.4,48.5,193.3,48.5z M193.3,54.6h-1.7
		c-0.1,0-0.1,0-0.1,0.1v4c0,0.1,0,0.1,0.1,0.1h1.7c0.1,0,0.1,0,0.1-0.1v-4C193.4,54.6,193.4,54.6,193.3,54.6z"/>
</g>
</svg>
